<?xml version="1.0" encoding="UTF-8"?>
<svg width="16" height="16" viewBox="0 0 16 16" fill="none" xmlns="http://www.w3.org/2000/svg">
  <path d="M15.5 11.7c0 .2-.1.4-.2.6l-2 2c-.2.2-.4.3-.7.4-.3.1-.6.1-.8.1-1.5 0-2.9-.3-4.2-1-1.3-.7-2.5-1.5-3.6-2.6-1.1-1.1-1.9-2.3-2.6-3.6C.7 6.3.4 4.9.4 3.4c0-.3 0-.6.1-.8.1-.3.2-.5.4-.7l2-2c.2-.2.4-.2.6-.2.2 0 .4.1.5.2l.1.1 1.6 1.6c.2.2.2.4.2.6 0 .2-.1.4-.2.6L4.3 4.2c-.1.1-.1.2-.1.3 0 .1 0 .2.1.3.2.4.5.8.8 1.2.3.4.7.8 1.1 1.2.4.4.8.8 1.2 1.1.4.3.8.6 1.2.8.1.1.2.1.3.1.1 0 .2 0 .3-.1l1.4-1.4c.2-.2.4-.3.6-.3.2 0 .4.1.6.2l2.6 2.6c.2.2.3.3.3.5z" fill="#0066FF"/>
</svg> 