<svg width="16" height="16" viewBox="0 0 16 16" fill="none" xmlns="http://www.w3.org/2000/svg">
  <path d="M12.6667 10.7267V12.7267C12.6675 12.9011 12.6294 13.0733 12.5553 13.2293C12.4813 13.3853 12.3732 13.5211 12.2394 13.6266C12.1056 13.7321 11.9498 13.8045 11.7839 13.8383C11.618 13.8721 11.4466 13.8664 11.2833 13.8213C9.46994 13.4117 7.76998 12.5733 6.31329 11.3667C4.95741 10.2508 3.84601 8.84996 3.04662 7.26667C2.63329 5.78 2.42075 4.22437 2.41995 2.66C2.41995 2.43478 2.47477 2.21369 2.57933 2.01853C2.68389 1.82338 2.83519 1.66137 3.01995 1.54667C3.20471 1.43197 3.41712 1.36801 3.63662 1.36134C3.85612 1.35467 4.07329 1.40552 4.26662 1.51333L6.26662 2.51333C6.44471 2.61005 6.59189 2.75614 6.69048 2.93505C6.78907 3.11396 6.83527 3.31793 6.82329 3.52333C6.77329 4.27333 6.81995 5.02667 6.95995 5.76C7.01124 6.02466 6.98939 6.29921 6.89684 6.55161C6.80429 6.80401 6.64474 7.02451 6.43329 7.18667L5.49995 7.92C6.24484 9.31312 7.35349 10.4218 8.74662 11.1667L9.47995 10.2333C9.64212 10.0219 9.86262 9.86232 10.115 9.76977C10.3674 9.67722 10.642 9.65537 10.9066 9.70667C11.64 9.84667 12.3933 9.89333 13.1433 9.84333C13.3506 9.83137 13.5563 9.87896 13.7362 9.97993C13.9161 10.0809 14.0622 10.2311 14.1566 10.4127L15.1566 12.4127C15.2657 12.6069 15.3171 12.8253 15.3104 13.0461C15.3037 13.2669 15.2391 13.4805 15.1233 13.6662C15.0086 13.851 14.8466 14.0023 14.6514 14.1068C14.4563 14.2114 14.2352 14.2662 14.01 14.2667L12.6667 10.7267Z" fill="currentColor"/>
</svg> 