<svg width="993" height="1075" viewBox="0 0 993 1075" fill="none" xmlns="http://www.w3.org/2000/svg">
<path d="M108.987 33.2522H218.886V0.000244141H219.886V33.2522H329.784V0.000244141H330.784V33.2522H440.683V0.000244141H441.683V33.2522H551.581V0.000244141H552.581V33.2522H662.479V0.0012207H663.479V33.2522H773.377V0.000244141H774.377V33.2522H884.275V0.000244141H885.275V33.2522H992.058V34.2522H885.275V144.151H992.058V145.151H885.275V255.05H992.058V256.05H885.275V365.948H992.058V366.948H885.275V476.845H992.058V477.845H885.275V596.183H992.058V597.183H885.275V707.08H992.058V708.08H885.275V817.978H992.058V818.978H885.275V928.879H992.058V929.879H885.275V1039.78H992.058V1040.78H885.275V1074.03H884.275V1040.78H774.377V1074.03H773.377V1040.78H663.479V1074.03H662.479V1040.78H552.581V1074.03H551.581V1040.78H441.683V1074.03H440.683V1040.78H330.784V1074.03H329.784V1040.78H219.886V1074.03H218.886V1040.78H108.987V1074.03H107.987V1040.78H0V1039.78H107.987V929.879H0V928.879H107.987V818.978H0V817.978H107.987V708.08H0V707.08H107.987V597.183H0V596.183H107.987V477.845H0V476.845H107.987V366.948H0V365.948H107.987V256.05H0V255.05H107.987V145.151H0V144.151H107.987V34.2522H0V33.2522H107.987V0.000244141H108.987V33.2522ZM108.987 1039.78H218.886V929.879H108.987V1039.78ZM219.886 1039.78H329.784V929.879H219.886V1039.78ZM330.784 1039.78H440.683V929.879H330.784V1039.78ZM441.683 1039.78H551.581V929.879H441.683V1039.78ZM552.581 1039.78H662.479V929.879H552.581V1039.78ZM663.479 1039.78H773.377V929.879H663.479V1039.78ZM774.377 1039.78H884.275V929.879H774.377V1039.78ZM108.987 928.879H218.886V818.978H108.987V928.879ZM219.886 928.879H329.784V818.978H219.886V928.879ZM330.784 928.879H440.683V818.978H330.784V928.879ZM441.683 928.879H551.581V818.978H441.683V928.879ZM552.581 928.879H662.479V818.978H552.581V928.879ZM663.479 928.879H773.377V818.978H663.479V928.879ZM774.377 928.879H884.275V818.978H774.377V928.879ZM108.987 817.978H218.886V708.08H108.987V817.978ZM219.886 817.978H329.784V708.08H219.886V817.978ZM330.784 817.978H440.683V708.08H330.784V817.978ZM441.683 817.978H551.581V708.08H441.683V817.978ZM552.581 817.978H662.479V708.08H552.581V817.978ZM663.479 817.978H773.377V708.08H663.479V817.978ZM774.377 817.978H884.275V708.08H774.377V817.978ZM108.987 707.08H218.886V597.183H108.987V707.08ZM219.886 707.08H329.784V597.183H219.886V707.08ZM330.784 707.08H440.683V597.183H330.784V707.08ZM441.683 707.08H551.581V597.183H441.683V707.08ZM552.581 707.08H662.479V597.183H552.581V707.08ZM663.479 707.08H773.377V597.183H663.479V707.08ZM774.377 707.08H884.275V597.183H774.377V707.08ZM108.987 596.183H218.886V477.845H108.987V596.183ZM219.886 596.183H329.784V477.845H219.886V596.183ZM330.784 596.183H440.683V477.845H330.784V596.183ZM441.683 596.183H551.581V477.845H441.683V596.183ZM552.581 596.183H662.479V550.876H663.479V596.183H773.377V477.845H663.479V548.465H662.479V477.845H552.581V596.183ZM774.377 596.183H884.275V477.845H774.377V596.183ZM108.987 476.845H218.886V366.948H108.987V476.845ZM219.886 476.845H329.784V366.948H219.886V476.845ZM330.784 476.845H440.683V366.948H330.784V476.845ZM441.683 476.845H551.581V366.948H441.683V476.845ZM552.581 476.845H662.479V366.948H552.581V476.845ZM663.479 476.845H773.377V366.948H663.479V476.845ZM774.377 476.845H884.275V366.948H774.377V476.845ZM108.987 365.948H218.886V256.05H108.987V365.948ZM219.886 365.948H329.784V256.05H219.886V365.948ZM330.784 365.948H440.683V256.05H330.784V365.948ZM441.683 365.948H551.581V256.05H441.683V365.948ZM552.581 365.948H662.479V256.05H552.581V365.948ZM663.479 365.948H773.377V256.05H663.479V365.948ZM774.377 365.948H884.275V256.05H774.377V365.948ZM774.377 255.05H884.275V145.151H774.377V255.05ZM663.479 255.05H773.377V145.151H663.479V255.05ZM552.581 255.05H662.479V145.151H552.581V255.05ZM441.683 255.05H551.581V145.151H441.683V255.05ZM330.784 255.05H440.683V145.151H330.784V255.05ZM219.886 255.05H329.784V145.151H219.886V255.05ZM108.987 255.05H218.886V145.151H108.987V255.05ZM108.987 144.151H218.886V34.2522H108.987V144.151ZM219.886 144.151H329.784V34.2522H219.886V144.151ZM330.784 144.151H440.683V34.2522H330.784V144.151ZM441.683 144.151H551.581V34.2522H441.683V144.151ZM552.581 144.151H662.479V34.2522H552.581V144.151ZM663.479 144.151H773.377V34.2522H663.479V144.151ZM774.377 144.151H884.275V34.2522H774.377V144.151Z" fill="url(#paint0_radial_1_193)" fill-opacity="0.2"/>
<defs>
<radialGradient id="paint0_radial_1_193" cx="0" cy="0" r="1" gradientUnits="userSpaceOnUse" gradientTransform="translate(496.029 537.014) rotate(90) scale(537.014 496.029)">
<stop stop-color="white" stop-opacity="0.24"/>
<stop offset="1" stop-color="white" stop-opacity="0"/>
</radialGradient>
</defs>
</svg>
